<?xml version="1.0" encoding="UTF-8" ?>
<svg version="1.1" width="360" height="360" xmlns="http://www.w3.org/2000/svg" shape-rendering="crispEdges">
<rect x="0" y="0" width="360" height="4" fill="#000000" />
<rect x="0" y="4" width="8" height="4" fill="#000000" />
<rect x="352" y="4" width="8" height="4" fill="#000000" />
<rect x="8" y="5" width="1" height="7" fill="#000000" />
<rect x="351" y="5" width="1" height="7" fill="#000000" />
<rect x="9" y="6" width="1" height="7" fill="#000000" />
<rect x="350" y="6" width="1" height="7" fill="#000000" />
<rect x="10" y="7" width="1" height="7" fill="#000000" />
<rect x="349" y="7" width="1" height="7" fill="#000000" />
<rect x="0" y="8" width="4" height="352" fill="#000000" />
<rect x="5" y="8" width="3" height="1" fill="#000000" />
<rect x="11" y="8" width="1" height="7" fill="#000000" />
<rect x="348" y="8" width="1" height="7" fill="#000000" />
<rect x="352" y="8" width="3" height="1" fill="#000000" />
<rect x="356" y="8" width="4" height="352" fill="#000000" />
<rect x="6" y="9" width="2" height="1" fill="#000000" />
<rect x="12" y="9" width="1" height="7" fill="#000000" />
<rect x="347" y="9" width="1" height="7" fill="#000000" />
<rect x="352" y="9" width="2" height="1" fill="#000000" />
<rect x="7" y="10" width="1" height="1" fill="#000000" />
<rect x="13" y="10" width="1" height="7" fill="#000000" />
<rect x="346" y="10" width="1" height="7" fill="#000000" />
<rect x="352" y="10" width="1" height="1" fill="#000000" />
<rect x="14" y="11" width="1" height="7" fill="#000000" />
<rect x="345" y="11" width="1" height="7" fill="#000000" />
<rect x="15" y="12" width="1" height="7" fill="#000000" />
<rect x="344" y="12" width="1" height="7" fill="#000000" />
<rect x="16" y="13" width="1" height="7" fill="#000000" />
<rect x="343" y="13" width="1" height="7" fill="#000000" />
<rect x="17" y="14" width="1" height="7" fill="#000000" />
<rect x="342" y="14" width="1" height="7" fill="#000000" />
<rect x="18" y="15" width="1" height="7" fill="#000000" />
<rect x="341" y="15" width="1" height="7" fill="#000000" />
<rect x="19" y="16" width="1" height="7" fill="#000000" />
<rect x="340" y="16" width="1" height="7" fill="#000000" />
<rect x="20" y="17" width="1" height="7" fill="#000000" />
<rect x="339" y="17" width="1" height="7" fill="#000000" />
<rect x="21" y="18" width="1" height="7" fill="#000000" />
<rect x="338" y="18" width="1" height="7" fill="#000000" />
<rect x="22" y="19" width="1" height="7" fill="#000000" />
<rect x="337" y="19" width="1" height="7" fill="#000000" />
<rect x="23" y="20" width="1" height="7" fill="#000000" />
<rect x="336" y="20" width="1" height="7" fill="#000000" />
<rect x="24" y="21" width="1" height="7" fill="#000000" />
<rect x="335" y="21" width="1" height="7" fill="#000000" />
<rect x="25" y="22" width="1" height="7" fill="#000000" />
<rect x="334" y="22" width="1" height="7" fill="#000000" />
<rect x="26" y="23" width="1" height="7" fill="#000000" />
<rect x="333" y="23" width="1" height="7" fill="#000000" />
<rect x="27" y="24" width="1" height="7" fill="#000000" />
<rect x="332" y="24" width="1" height="7" fill="#000000" />
<rect x="28" y="25" width="1" height="7" fill="#000000" />
<rect x="331" y="25" width="1" height="7" fill="#000000" />
<rect x="29" y="26" width="1" height="7" fill="#000000" />
<rect x="330" y="26" width="1" height="7" fill="#000000" />
<rect x="30" y="27" width="1" height="7" fill="#000000" />
<rect x="329" y="27" width="1" height="7" fill="#000000" />
<rect x="31" y="28" width="1" height="7" fill="#000000" />
<rect x="328" y="28" width="1" height="7" fill="#000000" />
<rect x="32" y="29" width="1" height="7" fill="#000000" />
<rect x="327" y="29" width="1" height="7" fill="#000000" />
<rect x="33" y="30" width="1" height="7" fill="#000000" />
<rect x="326" y="30" width="1" height="7" fill="#000000" />
<rect x="34" y="31" width="1" height="7" fill="#000000" />
<rect x="325" y="31" width="1" height="7" fill="#000000" />
<rect x="35" y="32" width="1" height="7" fill="#000000" />
<rect x="324" y="32" width="1" height="7" fill="#000000" />
<rect x="36" y="33" width="1" height="7" fill="#000000" />
<rect x="323" y="33" width="1" height="7" fill="#000000" />
<rect x="37" y="34" width="1" height="7" fill="#000000" />
<rect x="322" y="34" width="1" height="7" fill="#000000" />
<rect x="38" y="35" width="1" height="7" fill="#000000" />
<rect x="321" y="35" width="1" height="7" fill="#000000" />
<rect x="39" y="36" width="1" height="7" fill="#000000" />
<rect x="320" y="36" width="1" height="7" fill="#000000" />
<rect x="40" y="37" width="1" height="7" fill="#000000" />
<rect x="319" y="37" width="1" height="7" fill="#000000" />
<rect x="41" y="38" width="1" height="7" fill="#000000" />
<rect x="318" y="38" width="1" height="7" fill="#000000" />
<rect x="42" y="39" width="1" height="7" fill="#000000" />
<rect x="317" y="39" width="1" height="7" fill="#000000" />
<rect x="43" y="40" width="1" height="7" fill="#000000" />
<rect x="316" y="40" width="1" height="7" fill="#000000" />
<rect x="44" y="41" width="1" height="7" fill="#000000" />
<rect x="315" y="41" width="1" height="7" fill="#000000" />
<rect x="45" y="42" width="1" height="7" fill="#000000" />
<rect x="314" y="42" width="1" height="7" fill="#000000" />
<rect x="46" y="43" width="1" height="7" fill="#000000" />
<rect x="313" y="43" width="1" height="7" fill="#000000" />
<rect x="47" y="44" width="1" height="7" fill="#000000" />
<rect x="312" y="44" width="1" height="7" fill="#000000" />
<rect x="48" y="45" width="1" height="7" fill="#000000" />
<rect x="311" y="45" width="1" height="7" fill="#000000" />
<rect x="49" y="46" width="1" height="7" fill="#000000" />
<rect x="310" y="46" width="1" height="7" fill="#000000" />
<rect x="50" y="47" width="1" height="7" fill="#000000" />
<rect x="309" y="47" width="1" height="7" fill="#000000" />
<rect x="51" y="48" width="1" height="7" fill="#000000" />
<rect x="308" y="48" width="1" height="7" fill="#000000" />
<rect x="52" y="49" width="1" height="7" fill="#000000" />
<rect x="307" y="49" width="1" height="7" fill="#000000" />
<rect x="53" y="50" width="1" height="7" fill="#000000" />
<rect x="306" y="50" width="1" height="7" fill="#000000" />
<rect x="54" y="51" width="1" height="7" fill="#000000" />
<rect x="305" y="51" width="1" height="7" fill="#000000" />
<rect x="55" y="52" width="1" height="7" fill="#000000" />
<rect x="304" y="52" width="1" height="7" fill="#000000" />
<rect x="56" y="53" width="1" height="7" fill="#000000" />
<rect x="303" y="53" width="1" height="7" fill="#000000" />
<rect x="57" y="54" width="1" height="7" fill="#000000" />
<rect x="302" y="54" width="1" height="7" fill="#000000" />
<rect x="58" y="55" width="1" height="7" fill="#000000" />
<rect x="301" y="55" width="1" height="7" fill="#000000" />
<rect x="59" y="56" width="1" height="7" fill="#000000" />
<rect x="300" y="56" width="1" height="7" fill="#000000" />
<rect x="60" y="57" width="1" height="7" fill="#000000" />
<rect x="299" y="57" width="1" height="7" fill="#000000" />
<rect x="61" y="58" width="1" height="7" fill="#000000" />
<rect x="298" y="58" width="1" height="7" fill="#000000" />
<rect x="62" y="59" width="1" height="7" fill="#000000" />
<rect x="297" y="59" width="1" height="7" fill="#000000" />
<rect x="63" y="60" width="1" height="7" fill="#000000" />
<rect x="296" y="60" width="1" height="7" fill="#000000" />
<rect x="64" y="61" width="1" height="7" fill="#000000" />
<rect x="295" y="61" width="1" height="7" fill="#000000" />
<rect x="65" y="62" width="1" height="7" fill="#000000" />
<rect x="294" y="62" width="1" height="7" fill="#000000" />
<rect x="66" y="63" width="1" height="7" fill="#000000" />
<rect x="293" y="63" width="1" height="7" fill="#000000" />
<rect x="67" y="64" width="1" height="7" fill="#000000" />
<rect x="292" y="64" width="1" height="7" fill="#000000" />
<rect x="68" y="65" width="1" height="7" fill="#000000" />
<rect x="291" y="65" width="1" height="7" fill="#000000" />
<rect x="69" y="66" width="1" height="7" fill="#000000" />
<rect x="290" y="66" width="1" height="7" fill="#000000" />
<rect x="70" y="67" width="1" height="7" fill="#000000" />
<rect x="289" y="67" width="1" height="7" fill="#000000" />
<rect x="71" y="68" width="1" height="7" fill="#000000" />
<rect x="288" y="68" width="1" height="7" fill="#000000" />
<rect x="72" y="69" width="1" height="7" fill="#000000" />
<rect x="287" y="69" width="1" height="7" fill="#000000" />
<rect x="73" y="70" width="1" height="7" fill="#000000" />
<rect x="286" y="70" width="1" height="7" fill="#000000" />
<rect x="74" y="71" width="1" height="7" fill="#000000" />
<rect x="285" y="71" width="1" height="7" fill="#000000" />
<rect x="75" y="72" width="1" height="7" fill="#000000" />
<rect x="284" y="72" width="1" height="7" fill="#000000" />
<rect x="76" y="73" width="1" height="7" fill="#000000" />
<rect x="283" y="73" width="1" height="7" fill="#000000" />
<rect x="77" y="74" width="1" height="7" fill="#000000" />
<rect x="282" y="74" width="1" height="7" fill="#000000" />
<rect x="78" y="75" width="1" height="7" fill="#000000" />
<rect x="281" y="75" width="1" height="7" fill="#000000" />
<rect x="79" y="76" width="1" height="7" fill="#000000" />
<rect x="280" y="76" width="1" height="7" fill="#000000" />
<rect x="80" y="77" width="1" height="7" fill="#000000" />
<rect x="279" y="77" width="1" height="7" fill="#000000" />
<rect x="81" y="78" width="1" height="7" fill="#000000" />
<rect x="278" y="78" width="1" height="7" fill="#000000" />
<rect x="82" y="79" width="1" height="7" fill="#000000" />
<rect x="277" y="79" width="1" height="7" fill="#000000" />
<rect x="83" y="80" width="1" height="7" fill="#000000" />
<rect x="276" y="80" width="1" height="7" fill="#000000" />
<rect x="84" y="81" width="1" height="7" fill="#000000" />
<rect x="275" y="81" width="1" height="7" fill="#000000" />
<rect x="85" y="82" width="1" height="7" fill="#000000" />
<rect x="274" y="82" width="1" height="7" fill="#000000" />
<rect x="86" y="83" width="1" height="7" fill="#000000" />
<rect x="273" y="83" width="1" height="7" fill="#000000" />
<rect x="87" y="84" width="1" height="7" fill="#000000" />
<rect x="272" y="84" width="1" height="7" fill="#000000" />
<rect x="88" y="85" width="1" height="7" fill="#000000" />
<rect x="271" y="85" width="1" height="7" fill="#000000" />
<rect x="89" y="86" width="1" height="7" fill="#000000" />
<rect x="270" y="86" width="1" height="7" fill="#000000" />
<rect x="90" y="87" width="1" height="7" fill="#000000" />
<rect x="269" y="87" width="1" height="7" fill="#000000" />
<rect x="91" y="88" width="1" height="7" fill="#000000" />
<rect x="268" y="88" width="1" height="7" fill="#000000" />
<rect x="92" y="89" width="1" height="7" fill="#000000" />
<rect x="267" y="89" width="1" height="7" fill="#000000" />
<rect x="93" y="90" width="1" height="7" fill="#000000" />
<rect x="266" y="90" width="1" height="7" fill="#000000" />
<rect x="94" y="91" width="1" height="7" fill="#000000" />
<rect x="265" y="91" width="1" height="7" fill="#000000" />
<rect x="95" y="92" width="1" height="7" fill="#000000" />
<rect x="264" y="92" width="1" height="7" fill="#000000" />
<rect x="96" y="93" width="1" height="7" fill="#000000" />
<rect x="263" y="93" width="1" height="7" fill="#000000" />
<rect x="97" y="94" width="1" height="7" fill="#000000" />
<rect x="262" y="94" width="1" height="7" fill="#000000" />
<rect x="98" y="95" width="1" height="7" fill="#000000" />
<rect x="261" y="95" width="1" height="7" fill="#000000" />
<rect x="99" y="96" width="1" height="7" fill="#000000" />
<rect x="260" y="96" width="1" height="7" fill="#000000" />
<rect x="100" y="97" width="1" height="7" fill="#000000" />
<rect x="259" y="97" width="1" height="7" fill="#000000" />
<rect x="101" y="98" width="1" height="7" fill="#000000" />
<rect x="258" y="98" width="1" height="7" fill="#000000" />
<rect x="102" y="99" width="1" height="7" fill="#000000" />
<rect x="257" y="99" width="1" height="7" fill="#000000" />
<rect x="103" y="100" width="1" height="7" fill="#000000" />
<rect x="256" y="100" width="1" height="7" fill="#000000" />
<rect x="104" y="101" width="1" height="7" fill="#000000" />
<rect x="255" y="101" width="1" height="7" fill="#000000" />
<rect x="105" y="102" width="1" height="7" fill="#000000" />
<rect x="254" y="102" width="1" height="7" fill="#000000" />
<rect x="106" y="103" width="1" height="7" fill="#000000" />
<rect x="253" y="103" width="1" height="7" fill="#000000" />
<rect x="107" y="104" width="1" height="7" fill="#000000" />
<rect x="252" y="104" width="1" height="7" fill="#000000" />
<rect x="108" y="105" width="1" height="7" fill="#000000" />
<rect x="251" y="105" width="1" height="7" fill="#000000" />
<rect x="109" y="106" width="1" height="7" fill="#000000" />
<rect x="250" y="106" width="1" height="7" fill="#000000" />
<rect x="110" y="107" width="1" height="7" fill="#000000" />
<rect x="249" y="107" width="1" height="7" fill="#000000" />
<rect x="111" y="108" width="1" height="7" fill="#000000" />
<rect x="248" y="108" width="1" height="7" fill="#000000" />
<rect x="112" y="109" width="1" height="7" fill="#000000" />
<rect x="247" y="109" width="1" height="7" fill="#000000" />
<rect x="113" y="110" width="1" height="7" fill="#000000" />
<rect x="246" y="110" width="1" height="7" fill="#000000" />
<rect x="114" y="111" width="1" height="7" fill="#000000" />
<rect x="245" y="111" width="1" height="7" fill="#000000" />
<rect x="115" y="112" width="1" height="7" fill="#000000" />
<rect x="244" y="112" width="1" height="7" fill="#000000" />
<rect x="116" y="113" width="1" height="7" fill="#000000" />
<rect x="243" y="113" width="1" height="7" fill="#000000" />
<rect x="117" y="114" width="1" height="7" fill="#000000" />
<rect x="242" y="114" width="1" height="7" fill="#000000" />
<rect x="118" y="115" width="1" height="7" fill="#000000" />
<rect x="241" y="115" width="1" height="7" fill="#000000" />
<rect x="119" y="116" width="1" height="7" fill="#000000" />
<rect x="240" y="116" width="1" height="7" fill="#000000" />
<rect x="120" y="117" width="1" height="7" fill="#000000" />
<rect x="239" y="117" width="1" height="7" fill="#000000" />
<rect x="121" y="118" width="1" height="7" fill="#000000" />
<rect x="238" y="118" width="1" height="7" fill="#000000" />
<rect x="122" y="119" width="1" height="7" fill="#000000" />
<rect x="237" y="119" width="1" height="7" fill="#000000" />
<rect x="123" y="120" width="1" height="7" fill="#000000" />
<rect x="236" y="120" width="1" height="7" fill="#000000" />
<rect x="124" y="121" width="1" height="7" fill="#000000" />
<rect x="235" y="121" width="1" height="7" fill="#000000" />
<rect x="125" y="122" width="1" height="7" fill="#000000" />
<rect x="234" y="122" width="1" height="7" fill="#000000" />
<rect x="126" y="123" width="1" height="7" fill="#000000" />
<rect x="233" y="123" width="1" height="7" fill="#000000" />
<rect x="127" y="124" width="1" height="7" fill="#000000" />
<rect x="232" y="124" width="1" height="7" fill="#000000" />
<rect x="128" y="125" width="1" height="7" fill="#000000" />
<rect x="231" y="125" width="1" height="7" fill="#000000" />
<rect x="129" y="126" width="1" height="7" fill="#000000" />
<rect x="230" y="126" width="1" height="7" fill="#000000" />
<rect x="130" y="127" width="1" height="7" fill="#000000" />
<rect x="229" y="127" width="1" height="7" fill="#000000" />
<rect x="131" y="128" width="1" height="7" fill="#000000" />
<rect x="228" y="128" width="1" height="7" fill="#000000" />
<rect x="132" y="129" width="1" height="7" fill="#000000" />
<rect x="227" y="129" width="1" height="7" fill="#000000" />
<rect x="133" y="130" width="1" height="7" fill="#000000" />
<rect x="226" y="130" width="1" height="7" fill="#000000" />
<rect x="134" y="131" width="1" height="7" fill="#000000" />
<rect x="225" y="131" width="1" height="7" fill="#000000" />
<rect x="135" y="132" width="1" height="7" fill="#000000" />
<rect x="224" y="132" width="1" height="7" fill="#000000" />
<rect x="136" y="133" width="1" height="7" fill="#000000" />
<rect x="223" y="133" width="1" height="7" fill="#000000" />
<rect x="137" y="134" width="1" height="7" fill="#000000" />
<rect x="222" y="134" width="1" height="7" fill="#000000" />
<rect x="138" y="135" width="1" height="7" fill="#000000" />
<rect x="221" y="135" width="1" height="7" fill="#000000" />
<rect x="139" y="136" width="1" height="7" fill="#000000" />
<rect x="220" y="136" width="1" height="7" fill="#000000" />
<rect x="140" y="137" width="1" height="7" fill="#000000" />
<rect x="219" y="137" width="1" height="7" fill="#000000" />
<rect x="141" y="138" width="1" height="7" fill="#000000" />
<rect x="218" y="138" width="1" height="7" fill="#000000" />
<rect x="142" y="139" width="1" height="7" fill="#000000" />
<rect x="217" y="139" width="1" height="7" fill="#000000" />
<rect x="143" y="140" width="1" height="7" fill="#000000" />
<rect x="216" y="140" width="1" height="7" fill="#000000" />
<rect x="144" y="141" width="1" height="7" fill="#000000" />
<rect x="215" y="141" width="1" height="7" fill="#000000" />
<rect x="145" y="142" width="1" height="7" fill="#000000" />
<rect x="214" y="142" width="1" height="7" fill="#000000" />
<rect x="146" y="143" width="1" height="7" fill="#000000" />
<rect x="213" y="143" width="1" height="7" fill="#000000" />
<rect x="147" y="144" width="1" height="7" fill="#000000" />
<rect x="212" y="144" width="1" height="7" fill="#000000" />
<rect x="148" y="145" width="1" height="7" fill="#000000" />
<rect x="211" y="145" width="1" height="7" fill="#000000" />
<rect x="149" y="146" width="1" height="7" fill="#000000" />
<rect x="210" y="146" width="1" height="7" fill="#000000" />
<rect x="150" y="147" width="1" height="7" fill="#000000" />
<rect x="209" y="147" width="1" height="7" fill="#000000" />
<rect x="151" y="148" width="1" height="7" fill="#000000" />
<rect x="208" y="148" width="1" height="7" fill="#000000" />
<rect x="152" y="149" width="1" height="7" fill="#000000" />
<rect x="207" y="149" width="1" height="7" fill="#000000" />
<rect x="153" y="150" width="1" height="7" fill="#000000" />
<rect x="206" y="150" width="1" height="7" fill="#000000" />
<rect x="154" y="151" width="1" height="7" fill="#000000" />
<rect x="205" y="151" width="1" height="7" fill="#000000" />
<rect x="155" y="152" width="1" height="7" fill="#000000" />
<rect x="204" y="152" width="1" height="7" fill="#000000" />
<rect x="156" y="153" width="1" height="7" fill="#000000" />
<rect x="203" y="153" width="1" height="7" fill="#000000" />
<rect x="157" y="154" width="1" height="7" fill="#000000" />
<rect x="202" y="154" width="1" height="7" fill="#000000" />
<rect x="158" y="155" width="1" height="7" fill="#000000" />
<rect x="201" y="155" width="1" height="7" fill="#000000" />
<rect x="159" y="156" width="1" height="7" fill="#000000" />
<rect x="200" y="156" width="1" height="7" fill="#000000" />
<rect x="160" y="157" width="1" height="7" fill="#000000" />
<rect x="199" y="157" width="1" height="7" fill="#000000" />
<rect x="161" y="158" width="1" height="7" fill="#000000" />
<rect x="198" y="158" width="1" height="7" fill="#000000" />
<rect x="162" y="159" width="1" height="7" fill="#000000" />
<rect x="197" y="159" width="1" height="7" fill="#000000" />
<rect x="163" y="160" width="1" height="7" fill="#000000" />
<rect x="196" y="160" width="1" height="7" fill="#000000" />
<rect x="164" y="161" width="1" height="7" fill="#000000" />
<rect x="195" y="161" width="1" height="7" fill="#000000" />
<rect x="165" y="162" width="1" height="7" fill="#000000" />
<rect x="194" y="162" width="1" height="7" fill="#000000" />
<rect x="166" y="163" width="1" height="7" fill="#000000" />
<rect x="193" y="163" width="1" height="7" fill="#000000" />
<rect x="167" y="164" width="1" height="7" fill="#000000" />
<rect x="192" y="164" width="1" height="7" fill="#000000" />
<rect x="168" y="165" width="1" height="7" fill="#000000" />
<rect x="191" y="165" width="1" height="7" fill="#000000" />
<rect x="169" y="166" width="1" height="7" fill="#000000" />
<rect x="190" y="166" width="1" height="7" fill="#000000" />
<rect x="170" y="167" width="1" height="7" fill="#000000" />
<rect x="189" y="167" width="1" height="7" fill="#000000" />
<rect x="171" y="168" width="1" height="7" fill="#000000" />
<rect x="188" y="168" width="1" height="7" fill="#000000" />
<rect x="172" y="169" width="1" height="7" fill="#000000" />
<rect x="187" y="169" width="1" height="7" fill="#000000" />
<rect x="173" y="170" width="1" height="7" fill="#000000" />
<rect x="186" y="170" width="1" height="7" fill="#000000" />
<rect x="174" y="171" width="1" height="7" fill="#000000" />
<rect x="185" y="171" width="1" height="7" fill="#000000" />
<rect x="175" y="172" width="1" height="7" fill="#000000" />
<rect x="184" y="172" width="1" height="7" fill="#000000" />
<rect x="176" y="173" width="1" height="14" fill="#000000" />
<rect x="183" y="173" width="1" height="14" fill="#000000" />
<rect x="177" y="174" width="1" height="12" fill="#000000" />
<rect x="182" y="174" width="1" height="12" fill="#000000" />
<rect x="178" y="175" width="1" height="10" fill="#000000" />
<rect x="181" y="175" width="1" height="10" fill="#000000" />
<rect x="179" y="176" width="2" height="8" fill="#000000" />
<rect x="175" y="181" width="1" height="7" fill="#000000" />
<rect x="184" y="181" width="1" height="7" fill="#000000" />
<rect x="174" y="182" width="1" height="7" fill="#000000" />
<rect x="185" y="182" width="1" height="7" fill="#000000" />
<rect x="173" y="183" width="1" height="7" fill="#000000" />
<rect x="186" y="183" width="1" height="7" fill="#000000" />
<rect x="172" y="184" width="1" height="7" fill="#000000" />
<rect x="187" y="184" width="1" height="7" fill="#000000" />
<rect x="171" y="185" width="1" height="7" fill="#000000" />
<rect x="188" y="185" width="1" height="7" fill="#000000" />
<rect x="170" y="186" width="1" height="7" fill="#000000" />
<rect x="189" y="186" width="1" height="7" fill="#000000" />
<rect x="169" y="187" width="1" height="7" fill="#000000" />
<rect x="190" y="187" width="1" height="7" fill="#000000" />
<rect x="168" y="188" width="1" height="7" fill="#000000" />
<rect x="191" y="188" width="1" height="7" fill="#000000" />
<rect x="167" y="189" width="1" height="7" fill="#000000" />
<rect x="192" y="189" width="1" height="7" fill="#000000" />
<rect x="166" y="190" width="1" height="7" fill="#000000" />
<rect x="193" y="190" width="1" height="7" fill="#000000" />
<rect x="165" y="191" width="1" height="7" fill="#000000" />
<rect x="194" y="191" width="1" height="7" fill="#000000" />
<rect x="164" y="192" width="1" height="7" fill="#000000" />
<rect x="195" y="192" width="1" height="7" fill="#000000" />
<rect x="163" y="193" width="1" height="7" fill="#000000" />
<rect x="196" y="193" width="1" height="7" fill="#000000" />
<rect x="162" y="194" width="1" height="7" fill="#000000" />
<rect x="197" y="194" width="1" height="7" fill="#000000" />
<rect x="161" y="195" width="1" height="7" fill="#000000" />
<rect x="198" y="195" width="1" height="7" fill="#000000" />
<rect x="160" y="196" width="1" height="7" fill="#000000" />
<rect x="199" y="196" width="1" height="7" fill="#000000" />
<rect x="159" y="197" width="1" height="7" fill="#000000" />
<rect x="200" y="197" width="1" height="7" fill="#000000" />
<rect x="158" y="198" width="1" height="7" fill="#000000" />
<rect x="201" y="198" width="1" height="7" fill="#000000" />
<rect x="157" y="199" width="1" height="7" fill="#000000" />
<rect x="202" y="199" width="1" height="7" fill="#000000" />
<rect x="156" y="200" width="1" height="7" fill="#000000" />
<rect x="203" y="200" width="1" height="7" fill="#000000" />
<rect x="155" y="201" width="1" height="7" fill="#000000" />
<rect x="204" y="201" width="1" height="7" fill="#000000" />
<rect x="154" y="202" width="1" height="7" fill="#000000" />
<rect x="205" y="202" width="1" height="7" fill="#000000" />
<rect x="153" y="203" width="1" height="7" fill="#000000" />
<rect x="206" y="203" width="1" height="7" fill="#000000" />
<rect x="152" y="204" width="1" height="7" fill="#000000" />
<rect x="207" y="204" width="1" height="7" fill="#000000" />
<rect x="151" y="205" width="1" height="7" fill="#000000" />
<rect x="208" y="205" width="1" height="7" fill="#000000" />
<rect x="150" y="206" width="1" height="7" fill="#000000" />
<rect x="209" y="206" width="1" height="7" fill="#000000" />
<rect x="149" y="207" width="1" height="7" fill="#000000" />
<rect x="210" y="207" width="1" height="7" fill="#000000" />
<rect x="148" y="208" width="1" height="7" fill="#000000" />
<rect x="211" y="208" width="1" height="7" fill="#000000" />
<rect x="147" y="209" width="1" height="7" fill="#000000" />
<rect x="212" y="209" width="1" height="7" fill="#000000" />
<rect x="146" y="210" width="1" height="7" fill="#000000" />
<rect x="213" y="210" width="1" height="7" fill="#000000" />
<rect x="145" y="211" width="1" height="7" fill="#000000" />
<rect x="214" y="211" width="1" height="7" fill="#000000" />
<rect x="144" y="212" width="1" height="7" fill="#000000" />
<rect x="215" y="212" width="1" height="7" fill="#000000" />
<rect x="143" y="213" width="1" height="7" fill="#000000" />
<rect x="216" y="213" width="1" height="7" fill="#000000" />
<rect x="142" y="214" width="1" height="7" fill="#000000" />
<rect x="217" y="214" width="1" height="7" fill="#000000" />
<rect x="141" y="215" width="1" height="7" fill="#000000" />
<rect x="218" y="215" width="1" height="7" fill="#000000" />
<rect x="140" y="216" width="1" height="7" fill="#000000" />
<rect x="219" y="216" width="1" height="7" fill="#000000" />
<rect x="139" y="217" width="1" height="7" fill="#000000" />
<rect x="220" y="217" width="1" height="7" fill="#000000" />
<rect x="138" y="218" width="1" height="7" fill="#000000" />
<rect x="221" y="218" width="1" height="7" fill="#000000" />
<rect x="137" y="219" width="1" height="7" fill="#000000" />
<rect x="222" y="219" width="1" height="7" fill="#000000" />
<rect x="136" y="220" width="1" height="7" fill="#000000" />
<rect x="223" y="220" width="1" height="7" fill="#000000" />
<rect x="135" y="221" width="1" height="7" fill="#000000" />
<rect x="224" y="221" width="1" height="7" fill="#000000" />
<rect x="134" y="222" width="1" height="7" fill="#000000" />
<rect x="225" y="222" width="1" height="7" fill="#000000" />
<rect x="133" y="223" width="1" height="7" fill="#000000" />
<rect x="226" y="223" width="1" height="7" fill="#000000" />
<rect x="132" y="224" width="1" height="7" fill="#000000" />
<rect x="227" y="224" width="1" height="7" fill="#000000" />
<rect x="131" y="225" width="1" height="7" fill="#000000" />
<rect x="228" y="225" width="1" height="7" fill="#000000" />
<rect x="130" y="226" width="1" height="7" fill="#000000" />
<rect x="229" y="226" width="1" height="7" fill="#000000" />
<rect x="129" y="227" width="1" height="7" fill="#000000" />
<rect x="230" y="227" width="1" height="7" fill="#000000" />
<rect x="128" y="228" width="1" height="7" fill="#000000" />
<rect x="231" y="228" width="1" height="7" fill="#000000" />
<rect x="127" y="229" width="1" height="7" fill="#000000" />
<rect x="232" y="229" width="1" height="7" fill="#000000" />
<rect x="126" y="230" width="1" height="7" fill="#000000" />
<rect x="233" y="230" width="1" height="7" fill="#000000" />
<rect x="125" y="231" width="1" height="7" fill="#000000" />
<rect x="234" y="231" width="1" height="7" fill="#000000" />
<rect x="124" y="232" width="1" height="7" fill="#000000" />
<rect x="235" y="232" width="1" height="7" fill="#000000" />
<rect x="123" y="233" width="1" height="7" fill="#000000" />
<rect x="236" y="233" width="1" height="7" fill="#000000" />
<rect x="122" y="234" width="1" height="7" fill="#000000" />
<rect x="237" y="234" width="1" height="7" fill="#000000" />
<rect x="121" y="235" width="1" height="7" fill="#000000" />
<rect x="238" y="235" width="1" height="7" fill="#000000" />
<rect x="120" y="236" width="1" height="7" fill="#000000" />
<rect x="239" y="236" width="1" height="7" fill="#000000" />
<rect x="119" y="237" width="1" height="7" fill="#000000" />
<rect x="240" y="237" width="1" height="7" fill="#000000" />
<rect x="118" y="238" width="1" height="7" fill="#000000" />
<rect x="241" y="238" width="1" height="7" fill="#000000" />
<rect x="117" y="239" width="1" height="7" fill="#000000" />
<rect x="242" y="239" width="1" height="7" fill="#000000" />
<rect x="116" y="240" width="1" height="7" fill="#000000" />
<rect x="243" y="240" width="1" height="7" fill="#000000" />
<rect x="115" y="241" width="1" height="7" fill="#000000" />
<rect x="244" y="241" width="1" height="7" fill="#000000" />
<rect x="114" y="242" width="1" height="7" fill="#000000" />
<rect x="245" y="242" width="1" height="7" fill="#000000" />
<rect x="113" y="243" width="1" height="7" fill="#000000" />
<rect x="246" y="243" width="1" height="7" fill="#000000" />
<rect x="112" y="244" width="1" height="7" fill="#000000" />
<rect x="247" y="244" width="1" height="7" fill="#000000" />
<rect x="111" y="245" width="1" height="7" fill="#000000" />
<rect x="248" y="245" width="1" height="7" fill="#000000" />
<rect x="110" y="246" width="1" height="7" fill="#000000" />
<rect x="249" y="246" width="1" height="7" fill="#000000" />
<rect x="109" y="247" width="1" height="7" fill="#000000" />
<rect x="250" y="247" width="1" height="7" fill="#000000" />
<rect x="108" y="248" width="1" height="7" fill="#000000" />
<rect x="251" y="248" width="1" height="7" fill="#000000" />
<rect x="107" y="249" width="1" height="7" fill="#000000" />
<rect x="252" y="249" width="1" height="7" fill="#000000" />
<rect x="106" y="250" width="1" height="7" fill="#000000" />
<rect x="253" y="250" width="1" height="7" fill="#000000" />
<rect x="105" y="251" width="1" height="7" fill="#000000" />
<rect x="254" y="251" width="1" height="7" fill="#000000" />
<rect x="104" y="252" width="1" height="7" fill="#000000" />
<rect x="255" y="252" width="1" height="7" fill="#000000" />
<rect x="103" y="253" width="1" height="7" fill="#000000" />
<rect x="256" y="253" width="1" height="7" fill="#000000" />
<rect x="102" y="254" width="1" height="7" fill="#000000" />
<rect x="257" y="254" width="1" height="7" fill="#000000" />
<rect x="101" y="255" width="1" height="7" fill="#000000" />
<rect x="258" y="255" width="1" height="7" fill="#000000" />
<rect x="100" y="256" width="1" height="7" fill="#000000" />
<rect x="259" y="256" width="1" height="7" fill="#000000" />
<rect x="99" y="257" width="1" height="7" fill="#000000" />
<rect x="260" y="257" width="1" height="7" fill="#000000" />
<rect x="98" y="258" width="1" height="7" fill="#000000" />
<rect x="261" y="258" width="1" height="7" fill="#000000" />
<rect x="97" y="259" width="1" height="7" fill="#000000" />
<rect x="262" y="259" width="1" height="7" fill="#000000" />
<rect x="96" y="260" width="1" height="7" fill="#000000" />
<rect x="263" y="260" width="1" height="7" fill="#000000" />
<rect x="95" y="261" width="1" height="7" fill="#000000" />
<rect x="264" y="261" width="1" height="7" fill="#000000" />
<rect x="94" y="262" width="1" height="7" fill="#000000" />
<rect x="265" y="262" width="1" height="7" fill="#000000" />
<rect x="93" y="263" width="1" height="7" fill="#000000" />
<rect x="266" y="263" width="1" height="7" fill="#000000" />
<rect x="92" y="264" width="1" height="7" fill="#000000" />
<rect x="267" y="264" width="1" height="7" fill="#000000" />
<rect x="91" y="265" width="1" height="7" fill="#000000" />
<rect x="268" y="265" width="1" height="7" fill="#000000" />
<rect x="90" y="266" width="1" height="7" fill="#000000" />
<rect x="269" y="266" width="1" height="7" fill="#000000" />
<rect x="89" y="267" width="1" height="7" fill="#000000" />
<rect x="270" y="267" width="1" height="7" fill="#000000" />
<rect x="88" y="268" width="1" height="7" fill="#000000" />
<rect x="271" y="268" width="1" height="7" fill="#000000" />
<rect x="87" y="269" width="1" height="7" fill="#000000" />
<rect x="272" y="269" width="1" height="7" fill="#000000" />
<rect x="86" y="270" width="1" height="7" fill="#000000" />
<rect x="273" y="270" width="1" height="7" fill="#000000" />
<rect x="85" y="271" width="1" height="7" fill="#000000" />
<rect x="274" y="271" width="1" height="7" fill="#000000" />
<rect x="84" y="272" width="1" height="7" fill="#000000" />
<rect x="275" y="272" width="1" height="7" fill="#000000" />
<rect x="83" y="273" width="1" height="7" fill="#000000" />
<rect x="276" y="273" width="1" height="7" fill="#000000" />
<rect x="82" y="274" width="1" height="7" fill="#000000" />
<rect x="277" y="274" width="1" height="7" fill="#000000" />
<rect x="81" y="275" width="1" height="7" fill="#000000" />
<rect x="278" y="275" width="1" height="7" fill="#000000" />
<rect x="80" y="276" width="1" height="7" fill="#000000" />
<rect x="279" y="276" width="1" height="7" fill="#000000" />
<rect x="79" y="277" width="1" height="7" fill="#000000" />
<rect x="280" y="277" width="1" height="7" fill="#000000" />
<rect x="78" y="278" width="1" height="7" fill="#000000" />
<rect x="281" y="278" width="1" height="7" fill="#000000" />
<rect x="77" y="279" width="1" height="7" fill="#000000" />
<rect x="282" y="279" width="1" height="7" fill="#000000" />
<rect x="76" y="280" width="1" height="7" fill="#000000" />
<rect x="283" y="280" width="1" height="7" fill="#000000" />
<rect x="75" y="281" width="1" height="7" fill="#000000" />
<rect x="284" y="281" width="1" height="7" fill="#000000" />
<rect x="74" y="282" width="1" height="7" fill="#000000" />
<rect x="285" y="282" width="1" height="7" fill="#000000" />
<rect x="73" y="283" width="1" height="7" fill="#000000" />
<rect x="286" y="283" width="1" height="7" fill="#000000" />
<rect x="72" y="284" width="1" height="7" fill="#000000" />
<rect x="287" y="284" width="1" height="7" fill="#000000" />
<rect x="71" y="285" width="1" height="7" fill="#000000" />
<rect x="288" y="285" width="1" height="7" fill="#000000" />
<rect x="70" y="286" width="1" height="7" fill="#000000" />
<rect x="289" y="286" width="1" height="7" fill="#000000" />
<rect x="69" y="287" width="1" height="7" fill="#000000" />
<rect x="290" y="287" width="1" height="7" fill="#000000" />
<rect x="68" y="288" width="1" height="7" fill="#000000" />
<rect x="291" y="288" width="1" height="7" fill="#000000" />
<rect x="67" y="289" width="1" height="7" fill="#000000" />
<rect x="292" y="289" width="1" height="7" fill="#000000" />
<rect x="66" y="290" width="1" height="7" fill="#000000" />
<rect x="293" y="290" width="1" height="7" fill="#000000" />
<rect x="65" y="291" width="1" height="7" fill="#000000" />
<rect x="294" y="291" width="1" height="7" fill="#000000" />
<rect x="64" y="292" width="1" height="7" fill="#000000" />
<rect x="295" y="292" width="1" height="7" fill="#000000" />
<rect x="63" y="293" width="1" height="7" fill="#000000" />
<rect x="296" y="293" width="1" height="7" fill="#000000" />
<rect x="62" y="294" width="1" height="7" fill="#000000" />
<rect x="297" y="294" width="1" height="7" fill="#000000" />
<rect x="61" y="295" width="1" height="7" fill="#000000" />
<rect x="298" y="295" width="1" height="7" fill="#000000" />
<rect x="60" y="296" width="1" height="7" fill="#000000" />
<rect x="299" y="296" width="1" height="7" fill="#000000" />
<rect x="59" y="297" width="1" height="7" fill="#000000" />
<rect x="300" y="297" width="1" height="7" fill="#000000" />
<rect x="58" y="298" width="1" height="7" fill="#000000" />
<rect x="301" y="298" width="1" height="7" fill="#000000" />
<rect x="57" y="299" width="1" height="7" fill="#000000" />
<rect x="302" y="299" width="1" height="7" fill="#000000" />
<rect x="56" y="300" width="1" height="7" fill="#000000" />
<rect x="303" y="300" width="1" height="7" fill="#000000" />
<rect x="55" y="301" width="1" height="7" fill="#000000" />
<rect x="304" y="301" width="1" height="7" fill="#000000" />
<rect x="54" y="302" width="1" height="7" fill="#000000" />
<rect x="305" y="302" width="1" height="7" fill="#000000" />
<rect x="53" y="303" width="1" height="7" fill="#000000" />
<rect x="306" y="303" width="1" height="7" fill="#000000" />
<rect x="52" y="304" width="1" height="7" fill="#000000" />
<rect x="307" y="304" width="1" height="7" fill="#000000" />
<rect x="51" y="305" width="1" height="7" fill="#000000" />
<rect x="308" y="305" width="1" height="7" fill="#000000" />
<rect x="50" y="306" width="1" height="7" fill="#000000" />
<rect x="309" y="306" width="1" height="7" fill="#000000" />
<rect x="49" y="307" width="1" height="7" fill="#000000" />
<rect x="310" y="307" width="1" height="7" fill="#000000" />
<rect x="48" y="308" width="1" height="7" fill="#000000" />
<rect x="311" y="308" width="1" height="7" fill="#000000" />
<rect x="47" y="309" width="1" height="7" fill="#000000" />
<rect x="312" y="309" width="1" height="7" fill="#000000" />
<rect x="46" y="310" width="1" height="7" fill="#000000" />
<rect x="313" y="310" width="1" height="7" fill="#000000" />
<rect x="45" y="311" width="1" height="7" fill="#000000" />
<rect x="314" y="311" width="1" height="7" fill="#000000" />
<rect x="44" y="312" width="1" height="7" fill="#000000" />
<rect x="315" y="312" width="1" height="7" fill="#000000" />
<rect x="43" y="313" width="1" height="7" fill="#000000" />
<rect x="316" y="313" width="1" height="7" fill="#000000" />
<rect x="42" y="314" width="1" height="7" fill="#000000" />
<rect x="317" y="314" width="1" height="7" fill="#000000" />
<rect x="41" y="315" width="1" height="7" fill="#000000" />
<rect x="318" y="315" width="1" height="7" fill="#000000" />
<rect x="40" y="316" width="1" height="7" fill="#000000" />
<rect x="319" y="316" width="1" height="7" fill="#000000" />
<rect x="39" y="317" width="1" height="7" fill="#000000" />
<rect x="320" y="317" width="1" height="7" fill="#000000" />
<rect x="38" y="318" width="1" height="7" fill="#000000" />
<rect x="321" y="318" width="1" height="7" fill="#000000" />
<rect x="37" y="319" width="1" height="7" fill="#000000" />
<rect x="322" y="319" width="1" height="7" fill="#000000" />
<rect x="36" y="320" width="1" height="7" fill="#000000" />
<rect x="323" y="320" width="1" height="7" fill="#000000" />
<rect x="35" y="321" width="1" height="7" fill="#000000" />
<rect x="324" y="321" width="1" height="7" fill="#000000" />
<rect x="34" y="322" width="1" height="7" fill="#000000" />
<rect x="325" y="322" width="1" height="7" fill="#000000" />
<rect x="33" y="323" width="1" height="7" fill="#000000" />
<rect x="326" y="323" width="1" height="7" fill="#000000" />
<rect x="32" y="324" width="1" height="7" fill="#000000" />
<rect x="327" y="324" width="1" height="7" fill="#000000" />
<rect x="31" y="325" width="1" height="7" fill="#000000" />
<rect x="328" y="325" width="1" height="7" fill="#000000" />
<rect x="30" y="326" width="1" height="7" fill="#000000" />
<rect x="329" y="326" width="1" height="7" fill="#000000" />
<rect x="29" y="327" width="1" height="7" fill="#000000" />
<rect x="330" y="327" width="1" height="7" fill="#000000" />
<rect x="28" y="328" width="1" height="7" fill="#000000" />
<rect x="331" y="328" width="1" height="7" fill="#000000" />
<rect x="27" y="329" width="1" height="7" fill="#000000" />
<rect x="332" y="329" width="1" height="7" fill="#000000" />
<rect x="26" y="330" width="1" height="7" fill="#000000" />
<rect x="333" y="330" width="1" height="7" fill="#000000" />
<rect x="25" y="331" width="1" height="7" fill="#000000" />
<rect x="334" y="331" width="1" height="7" fill="#000000" />
<rect x="24" y="332" width="1" height="7" fill="#000000" />
<rect x="335" y="332" width="1" height="7" fill="#000000" />
<rect x="23" y="333" width="1" height="7" fill="#000000" />
<rect x="336" y="333" width="1" height="7" fill="#000000" />
<rect x="22" y="334" width="1" height="7" fill="#000000" />
<rect x="337" y="334" width="1" height="7" fill="#000000" />
<rect x="21" y="335" width="1" height="7" fill="#000000" />
<rect x="338" y="335" width="1" height="7" fill="#000000" />
<rect x="20" y="336" width="1" height="7" fill="#000000" />
<rect x="339" y="336" width="1" height="7" fill="#000000" />
<rect x="19" y="337" width="1" height="7" fill="#000000" />
<rect x="340" y="337" width="1" height="7" fill="#000000" />
<rect x="18" y="338" width="1" height="7" fill="#000000" />
<rect x="341" y="338" width="1" height="7" fill="#000000" />
<rect x="17" y="339" width="1" height="7" fill="#000000" />
<rect x="342" y="339" width="1" height="7" fill="#000000" />
<rect x="16" y="340" width="1" height="7" fill="#000000" />
<rect x="343" y="340" width="1" height="7" fill="#000000" />
<rect x="15" y="341" width="1" height="7" fill="#000000" />
<rect x="344" y="341" width="1" height="7" fill="#000000" />
<rect x="14" y="342" width="1" height="7" fill="#000000" />
<rect x="345" y="342" width="1" height="7" fill="#000000" />
<rect x="13" y="343" width="1" height="7" fill="#000000" />
<rect x="346" y="343" width="1" height="7" fill="#000000" />
<rect x="12" y="344" width="1" height="7" fill="#000000" />
<rect x="347" y="344" width="1" height="7" fill="#000000" />
<rect x="11" y="345" width="1" height="7" fill="#000000" />
<rect x="348" y="345" width="1" height="7" fill="#000000" />
<rect x="10" y="346" width="1" height="7" fill="#000000" />
<rect x="349" y="346" width="1" height="7" fill="#000000" />
<rect x="9" y="347" width="1" height="7" fill="#000000" />
<rect x="350" y="347" width="1" height="7" fill="#000000" />
<rect x="8" y="348" width="1" height="7" fill="#000000" />
<rect x="351" y="348" width="1" height="7" fill="#000000" />
<rect x="7" y="349" width="1" height="11" fill="#000000" />
<rect x="352" y="349" width="1" height="11" fill="#000000" />
<rect x="6" y="350" width="1" height="10" fill="#000000" />
<rect x="353" y="350" width="1" height="10" fill="#000000" />
<rect x="5" y="351" width="1" height="9" fill="#000000" />
<rect x="354" y="351" width="1" height="9" fill="#000000" />
<rect x="4" y="352" width="1" height="8" fill="#000000" />
<rect x="355" y="352" width="1" height="8" fill="#000000" />
<rect x="8" y="356" width="344" height="4" fill="#000000" />
</svg>